<?xml version="1.0" standalone="no"?>
<svg xmlns="http://www.w3.org/2000/svg" viewBox="0 0 115 57" width="115" height="57"><g fill="#17f34e" color="#17f34e" transform="translate(35.276 0) scale(0.8148149) "><svg width="54.0" height="37.0" x="0.0" y="0.0" viewBox="0 0 54 37"><path fill="currentColor" fill-rule="evenodd" d="M53.252 22.142C51.05 9.572 40.038 0 26.862 0 12.067 0 0 12.067 0 26.86c0 3.237.578 6.343 1.73 9.044 14.863-10.423 31.836-15.314 51.522-13.763m.127 1.503c.276 1.007.344 2.104.344 3.216 0 3.469-.663 6.786-1.898 9.78-9.752.631-11.423-13.057 1.554-12.996"></path></svg></g><path fill="#0039d4" fill-rule="nonzero" d="M6.98 17.88Q6.53 17.88 6.22 17.57Q5.90 17.26 5.90 16.80L5.90 16.80L5.90 3.05L1.01 3.05Q0.58 3.05 0.29 2.76Q0 2.47 0 2.04L0 2.04Q0 1.61 0.29 1.31Q0.58 1.01 1.01 1.01L1.01 1.01L12.96 1.01Q13.39 1.01 13.69 1.31Q13.99 1.61 13.99 2.04L13.99 2.04Q13.99 2.47 13.69 2.76Q13.39 3.05 12.96 3.05L12.96 3.05L8.09 3.05L8.09 16.80Q8.09 17.26 7.76 17.57Q7.44 17.88 6.98 17.88L6.98 17.88ZM15.84 17.88Q15.38 17.88 15.07 17.57Q14.76 17.26 14.76 16.80L14.76 16.80L14.76 6.50Q14.76 6.05 15.07 5.72Q15.38 5.40 15.84 5.40L15.84 5.40Q16.30 5.40 16.62 5.72Q16.94 6.05 16.94 6.50L16.94 6.50L16.94 7.54Q18.62 5.28 20.71 5.28L20.71 5.28L20.83 5.28Q21.29 5.28 21.59 5.59Q21.89 5.90 21.89 6.36L21.89 6.36Q21.89 6.82 21.58 7.10Q21.26 7.39 20.78 7.39L20.78 7.39L20.66 7.39Q19.51 7.39 18.55 7.96Q17.59 8.52 16.94 9.50L16.94 9.50L16.94 16.80Q16.94 17.26 16.62 17.57Q16.30 17.88 15.84 17.88L15.84 17.88ZM27.07 18Q26.02 18 25.12 17.57Q24.22 17.14 23.69 16.31Q23.16 15.48 23.16 14.40L23.16 14.40Q23.16 12.62 24.56 11.57Q25.97 10.51 28.68 10.51L28.68 10.51L31.58 10.51L31.58 10.32Q31.58 8.74 30.80 8.04Q30.02 7.34 28.37 7.34L28.37 7.34Q27.46 7.34 26.75 7.49Q26.04 7.63 25.18 7.92L25.18 7.92Q24.98 7.97 24.86 7.97L24.86 7.97Q24.50 7.97 24.24 7.70Q23.98 7.44 23.98 7.06L23.98 7.06Q23.98 6.41 24.60 6.14L24.60 6.14Q26.64 5.28 28.75 5.28L28.75 5.28Q30.41 5.28 31.55 5.95Q32.69 6.62 33.23 7.69Q33.77 8.76 33.77 10.01L33.77 10.01L33.77 16.80Q33.77 17.26 33.44 17.57Q33.12 17.88 32.66 17.88L32.66 17.88Q32.21 17.88 31.90 17.57Q31.58 17.26 31.58 16.80L31.58 16.80L31.58 16.18Q29.81 18 27.07 18L27.07 18ZM27.89 16.08Q28.94 16.08 29.93 15.56Q30.91 15.05 31.58 14.28L31.58 14.28L31.58 12.26L28.97 12.26Q25.34 12.26 25.34 14.16L25.34 14.16Q25.34 15.02 25.93 15.55Q26.52 16.08 27.89 16.08L27.89 16.08ZM41.57 17.88Q41.14 17.88 40.78 17.63Q40.42 17.38 40.25 16.99L40.25 16.99L36.07 7.01Q35.95 6.72 35.95 6.50L35.95 6.50Q35.95 6.05 36.26 5.72Q36.58 5.40 37.03 5.40L37.03 5.40Q37.34 5.40 37.62 5.58Q37.90 5.76 38.02 6.02L38.02 6.02L41.69 15.34L45.36 6.02Q45.48 5.76 45.76 5.58Q46.03 5.40 46.34 5.40L46.34 5.40Q46.80 5.40 47.11 5.72Q47.42 6.05 47.42 6.50L47.42 6.50Q47.42 6.72 47.30 7.01L47.30 7.01L43.13 16.99Q42.96 17.38 42.60 17.63Q42.24 17.88 41.81 17.88L41.81 17.88L41.57 17.88ZM55.25 18Q52.32 18 50.68 16.33Q49.03 14.66 49.03 11.64L49.03 11.64Q49.03 9.94 49.66 8.50Q50.28 7.06 51.58 6.17Q52.87 5.28 54.77 5.28L54.77 5.28Q56.54 5.28 57.84 6.11Q59.14 6.94 59.81 8.32Q60.48 9.70 60.48 11.33L60.48 11.33Q60.48 11.78 60.18 12.10Q59.88 12.41 59.38 12.41L59.38 12.41L51.24 12.41Q51.43 14.09 52.49 15.02Q53.54 15.96 55.44 15.96L55.44 15.96Q56.45 15.96 57.20 15.77Q57.96 15.58 58.68 15.22L58.68 15.22Q58.87 15.12 59.11 15.12L59.11 15.12Q59.50 15.12 59.78 15.38Q60.07 15.65 60.07 16.06L60.07 16.06Q60.07 16.58 59.45 16.94L59.45 16.94Q58.51 17.47 57.60 17.74Q56.69 18 55.25 18L55.25 18ZM51.24 10.63L58.32 10.63Q58.25 9.46 57.71 8.66Q57.17 7.87 56.38 7.50Q55.58 7.13 54.77 7.13L54.77 7.13Q53.95 7.13 53.16 7.50Q52.37 7.87 51.84 8.66Q51.31 9.46 51.24 10.63L51.24 10.63ZM64.44 17.88Q63.98 17.88 63.67 17.57Q63.36 17.26 63.36 16.80L63.36 16.80L63.36 1.22Q63.36 0.77 63.67 0.44Q63.98 0.12 64.44 0.12L64.44 0.12Q64.92 0.12 65.23 0.43Q65.54 0.74 65.54 1.22L65.54 1.22L65.54 16.80Q65.54 17.26 65.22 17.57Q64.90 17.88 64.44 17.88L64.44 17.88ZM77.52 17.76Q76.90 17.76 76.45 17.32Q76.01 16.87 76.01 16.25L76.01 16.25L76.01 1.99Q76.01 1.54 76.32 1.21Q76.63 0.89 77.09 0.89L77.09 0.89Q77.54 0.89 77.87 1.21Q78.19 1.54 78.19 1.99L78.19 1.99L78.19 15.58L86.04 15.58Q86.50 15.58 86.82 15.90Q87.14 16.22 87.14 16.68L87.14 16.68Q87.14 17.14 86.82 17.45Q86.50 17.76 86.04 17.76L86.04 17.76L77.52 17.76ZM90.43 3.02Q89.93 3.02 89.57 2.66Q89.21 2.30 89.21 1.80L89.21 1.80L89.21 1.70Q89.21 1.20 89.57 0.84Q89.93 0.48 90.43 0.48L90.43 0.48L90.58 0.48Q91.08 0.48 91.44 0.84Q91.80 1.20 91.80 1.70L91.80 1.70L91.80 1.80Q91.80 2.30 91.44 2.66Q91.08 3.02 90.58 3.02L90.58 3.02L90.43 3.02ZM90.48 17.88Q90.02 17.88 89.71 17.57Q89.40 17.26 89.40 16.80L89.40 16.80L89.40 6.50Q89.40 6.05 89.71 5.72Q90.02 5.40 90.48 5.40L90.48 5.40Q90.96 5.40 91.27 5.71Q91.58 6.02 91.58 6.50L91.58 6.50L91.58 16.80Q91.58 17.26 91.26 17.57Q90.94 17.88 90.48 17.88L90.48 17.88ZM97.37 17.88Q96.91 17.88 96.60 17.57Q96.29 17.26 96.29 16.80L96.29 16.80L96.29 7.39L94.87 7.39Q94.49 7.39 94.21 7.12Q93.94 6.84 93.94 6.46L93.94 6.46Q93.94 6.05 94.21 5.78Q94.49 5.52 94.87 5.52L94.87 5.52L96.29 5.52L96.29 4.13Q96.29 2.69 96.80 1.76Q97.32 0.84 98.15 0.42Q98.98 0 99.89 0L99.89 0Q101.02 0 101.98 0.48L101.98 0.48Q102.22 0.60 102.37 0.83Q102.53 1.06 102.53 1.32L102.53 1.32Q102.53 1.68 102.26 1.96Q102.00 2.23 101.64 2.23L101.64 2.23Q101.38 2.23 101.09 2.16L101.09 2.16Q100.51 2.09 100.44 2.09L100.44 2.09Q99.46 2.09 98.96 2.54Q98.47 3.00 98.47 4.20L98.47 4.20L98.47 5.52L101.47 5.52Q101.88 5.52 102.14 5.78Q102.41 6.05 102.41 6.46L102.41 6.46Q102.41 6.84 102.14 7.12Q101.88 7.39 101.47 7.39L101.47 7.39L98.47 7.39L98.47 16.80Q98.47 17.26 98.15 17.57Q97.82 17.88 97.37 17.88L97.37 17.88ZM109.32 18Q106.39 18 104.75 16.33Q103.10 14.66 103.10 11.64L103.10 11.64Q103.10 9.94 103.73 8.50Q104.35 7.06 105.65 6.17Q106.94 5.28 108.84 5.28L108.84 5.28Q110.62 5.28 111.91 6.11Q113.21 6.94 113.88 8.32Q114.55 9.70 114.55 11.33L114.55 11.33Q114.55 11.78 114.25 12.10Q113.95 12.41 113.45 12.41L113.45 12.41L105.31 12.41Q105.50 14.09 106.56 15.02Q107.62 15.96 109.51 15.96L109.51 15.96Q110.52 15.96 111.28 15.77Q112.03 15.58 112.75 15.22L112.75 15.22Q112.94 15.12 113.18 15.12L113.18 15.12Q113.57 15.12 113.86 15.38Q114.14 15.65 114.14 16.06L114.14 16.06Q114.14 16.58 113.52 16.94L113.52 16.94Q112.58 17.47 111.67 17.74Q110.76 18 109.32 18L109.32 18ZM105.31 10.63L112.39 10.63Q112.32 9.46 111.78 8.66Q111.24 7.87 110.45 7.50Q109.66 7.13 108.84 7.13L108.84 7.13Q108.02 7.13 107.23 7.50Q106.44 7.87 105.91 8.66Q105.38 9.46 105.31 10.63L105.31 10.63Z" transform="translate(0, 38.149)"></path></svg>